<svg xmlns="http://www.w3.org/2000/svg" viewBox="0 0 512 512">
  <defs>
    <linearGradient id="bg" x1="0%" y1="0%" x2="100%" y2="100%">
      <stop offset="0%" style="stop-color:#7a5afc"/>
      <stop offset="100%" style="stop-color:#a855f7"/>
    </linearGradient>
    <linearGradient id="shine" x1="0%" y1="0%" x2="100%" y2="100%">
      <stop offset="0%" style="stop-color:rgba(255,255,255,0.3)"/>
      <stop offset="100%" style="stop-color:rgba(255,255,255,0)"/>
    </linearGradient>
  </defs>
  <!-- Rounded square background -->
  <rect width="512" height="512" rx="112" fill="url(#bg)"/>
  <!-- Subtle shine -->
  <rect width="512" height="512" rx="112" fill="url(#shine)"/>
  <!-- Chat bubble shape -->
  <path d="M 256 80 C 158 80 80 145 80 228 C 80 280 110 326 156 356 L 136 416 L 208 376 C 222 380 238 382 256 382 C 354 382 432 317 432 234 C 432 145 354 80 256 80 Z" fill="white" opacity="0.95"/>
  <!-- Brain/psychology symbol inside bubble - simplified psi (Ψ) -->
  <text x="256" y="275" text-anchor="middle" font-family="serif" font-size="180" font-weight="bold" fill="#7a5afc">&#x3A8;</text>
  <!-- Small heart accent -->
  <path d="M 340 140 C 332 128 316 128 308 140 C 300 128 284 128 276 140 C 264 158 308 190 308 190 C 308 190 352 158 340 140 Z" fill="#f472b6" opacity="0.85"/>
</svg>
